<mxfile host="app.diagrams.net" agent="Mozilla/5.0 (Windows NT 10.0; Win64; x64) AppleWebKit/537.36 (KHTML, like Gecko) Chrome/134.0.0.0 Safari/537.36 Edg/134.0.0.0" version="26.1.0" pages="2">
  <diagram id="cXymnqShleyIBCJ2rH8u" name="Diagrama de Classes">
    <mxGraphModel dx="1744" dy="938" grid="1" gridSize="10" guides="1" tooltips="1" connect="1" arrows="1" fold="1" page="1" pageScale="1" pageWidth="2000" pageHeight="2000" math="0" shadow="0">
      <root>
        <mxCell id="0" />
        <mxCell id="1" parent="0" />
        <mxCell id="t6kavxzw9Mqx2PXKAYc6-1" value="JoinRequest" style="swimlane;fontStyle=0;childLayout=stackLayout;horizontal=1;startSize=30;horizontalStack=0;resizeParent=1;resizeParentMax=0;resizeLast=0;collapsible=1;marginBottom=0;whiteSpace=wrap;html=1;" parent="1" vertex="1">
          <mxGeometry x="270" y="200" width="140" height="240" as="geometry" />
        </mxCell>
        <mxCell id="t6kavxzw9Mqx2PXKAYc6-2" value="&lt;b&gt;Id: int&lt;/b&gt;" style="text;strokeColor=none;fillColor=none;align=left;verticalAlign=middle;spacingLeft=4;spacingRight=4;overflow=hidden;points=[[0,0.5],[1,0.5]];portConstraint=eastwest;rotatable=0;whiteSpace=wrap;html=1;" parent="t6kavxzw9Mqx2PXKAYc6-1" vertex="1">
          <mxGeometry y="30" width="140" height="30" as="geometry" />
        </mxCell>
        <mxCell id="t6kavxzw9Mqx2PXKAYc6-3" value="&lt;b&gt;ChallengeId: id&lt;/b&gt;" style="text;strokeColor=none;fillColor=none;align=left;verticalAlign=middle;spacingLeft=4;spacingRight=4;overflow=hidden;points=[[0,0.5],[1,0.5]];portConstraint=eastwest;rotatable=0;whiteSpace=wrap;html=1;" parent="t6kavxzw9Mqx2PXKAYc6-1" vertex="1">
          <mxGeometry y="60" width="140" height="30" as="geometry" />
        </mxCell>
        <mxCell id="t6kavxzw9Mqx2PXKAYc6-5" value="&lt;b&gt;Challenge: Challenge&lt;/b&gt;" style="text;strokeColor=none;fillColor=none;align=left;verticalAlign=middle;spacingLeft=4;spacingRight=4;overflow=hidden;points=[[0,0.5],[1,0.5]];portConstraint=eastwest;rotatable=0;whiteSpace=wrap;html=1;" parent="t6kavxzw9Mqx2PXKAYc6-1" vertex="1">
          <mxGeometry y="90" width="140" height="30" as="geometry" />
        </mxCell>
        <mxCell id="t6kavxzw9Mqx2PXKAYc6-6" value="&lt;b&gt;UserId: int&lt;/b&gt;" style="text;strokeColor=none;fillColor=none;align=left;verticalAlign=middle;spacingLeft=4;spacingRight=4;overflow=hidden;points=[[0,0.5],[1,0.5]];portConstraint=eastwest;rotatable=0;whiteSpace=wrap;html=1;" parent="t6kavxzw9Mqx2PXKAYc6-1" vertex="1">
          <mxGeometry y="120" width="140" height="30" as="geometry" />
        </mxCell>
        <mxCell id="t6kavxzw9Mqx2PXKAYc6-4" value="&lt;b&gt;User User&lt;/b&gt;" style="text;strokeColor=none;fillColor=none;align=left;verticalAlign=middle;spacingLeft=4;spacingRight=4;overflow=hidden;points=[[0,0.5],[1,0.5]];portConstraint=eastwest;rotatable=0;whiteSpace=wrap;html=1;" parent="t6kavxzw9Mqx2PXKAYc6-1" vertex="1">
          <mxGeometry y="150" width="140" height="30" as="geometry" />
        </mxCell>
        <mxCell id="t6kavxzw9Mqx2PXKAYc6-7" value="RequestDate: DateTime" style="text;strokeColor=none;fillColor=none;align=left;verticalAlign=middle;spacingLeft=4;spacingRight=4;overflow=hidden;points=[[0,0.5],[1,0.5]];portConstraint=eastwest;rotatable=0;whiteSpace=wrap;html=1;" parent="t6kavxzw9Mqx2PXKAYc6-1" vertex="1">
          <mxGeometry y="180" width="140" height="30" as="geometry" />
        </mxCell>
        <mxCell id="t6kavxzw9Mqx2PXKAYc6-15" value="IsApproved: bool" style="text;strokeColor=none;fillColor=none;align=left;verticalAlign=middle;spacingLeft=4;spacingRight=4;overflow=hidden;points=[[0,0.5],[1,0.5]];portConstraint=eastwest;rotatable=0;whiteSpace=wrap;html=1;" parent="t6kavxzw9Mqx2PXKAYc6-1" vertex="1">
          <mxGeometry y="210" width="140" height="30" as="geometry" />
        </mxCell>
        <mxCell id="t6kavxzw9Mqx2PXKAYc6-16" value="GroupInvite" style="swimlane;fontStyle=0;childLayout=stackLayout;horizontal=1;startSize=30;horizontalStack=0;resizeParent=1;resizeParentMax=0;resizeLast=0;collapsible=1;marginBottom=0;whiteSpace=wrap;html=1;" parent="1" vertex="1">
          <mxGeometry x="260" y="620" width="160" height="210" as="geometry" />
        </mxCell>
        <mxCell id="t6kavxzw9Mqx2PXKAYc6-17" value="&lt;b&gt;Id: int&lt;/b&gt;" style="text;strokeColor=none;fillColor=none;align=left;verticalAlign=middle;spacingLeft=4;spacingRight=4;overflow=hidden;points=[[0,0.5],[1,0.5]];portConstraint=eastwest;rotatable=0;whiteSpace=wrap;html=1;" parent="t6kavxzw9Mqx2PXKAYc6-16" vertex="1">
          <mxGeometry y="30" width="160" height="30" as="geometry" />
        </mxCell>
        <mxCell id="t6kavxzw9Mqx2PXKAYc6-18" value="&lt;b&gt;ChallengeId: id&lt;/b&gt;" style="text;strokeColor=none;fillColor=none;align=left;verticalAlign=middle;spacingLeft=4;spacingRight=4;overflow=hidden;points=[[0,0.5],[1,0.5]];portConstraint=eastwest;rotatable=0;whiteSpace=wrap;html=1;" parent="t6kavxzw9Mqx2PXKAYc6-16" vertex="1">
          <mxGeometry y="60" width="160" height="30" as="geometry" />
        </mxCell>
        <mxCell id="t6kavxzw9Mqx2PXKAYc6-19" value="&lt;b&gt;Challenge: Challenge&lt;/b&gt;" style="text;strokeColor=none;fillColor=none;align=left;verticalAlign=middle;spacingLeft=4;spacingRight=4;overflow=hidden;points=[[0,0.5],[1,0.5]];portConstraint=eastwest;rotatable=0;whiteSpace=wrap;html=1;" parent="t6kavxzw9Mqx2PXKAYc6-16" vertex="1">
          <mxGeometry y="90" width="160" height="30" as="geometry" />
        </mxCell>
        <mxCell id="t6kavxzw9Mqx2PXKAYc6-20" value="InviteCode: string" style="text;strokeColor=none;fillColor=none;align=left;verticalAlign=middle;spacingLeft=4;spacingRight=4;overflow=hidden;points=[[0,0.5],[1,0.5]];portConstraint=eastwest;rotatable=0;whiteSpace=wrap;html=1;" parent="t6kavxzw9Mqx2PXKAYc6-16" vertex="1">
          <mxGeometry y="120" width="160" height="30" as="geometry" />
        </mxCell>
        <mxCell id="t6kavxzw9Mqx2PXKAYc6-22" value="ExpirationDate: DateTime" style="text;strokeColor=none;fillColor=none;align=left;verticalAlign=middle;spacingLeft=4;spacingRight=4;overflow=hidden;points=[[0,0.5],[1,0.5]];portConstraint=eastwest;rotatable=0;whiteSpace=wrap;html=1;" parent="t6kavxzw9Mqx2PXKAYc6-16" vertex="1">
          <mxGeometry y="150" width="160" height="30" as="geometry" />
        </mxCell>
        <mxCell id="t6kavxzw9Mqx2PXKAYc6-23" value="IsUsed: bool" style="text;strokeColor=none;fillColor=none;align=left;verticalAlign=middle;spacingLeft=4;spacingRight=4;overflow=hidden;points=[[0,0.5],[1,0.5]];portConstraint=eastwest;rotatable=0;whiteSpace=wrap;html=1;" parent="t6kavxzw9Mqx2PXKAYc6-16" vertex="1">
          <mxGeometry y="180" width="160" height="30" as="geometry" />
        </mxCell>
        <mxCell id="t6kavxzw9Mqx2PXKAYc6-24" value="Notification" style="swimlane;fontStyle=0;childLayout=stackLayout;horizontal=1;startSize=30;horizontalStack=0;resizeParent=1;resizeParentMax=0;resizeLast=0;collapsible=1;marginBottom=0;whiteSpace=wrap;html=1;" parent="1" vertex="1">
          <mxGeometry x="1280" y="330" width="160" height="210" as="geometry" />
        </mxCell>
        <mxCell id="t6kavxzw9Mqx2PXKAYc6-25" value="&lt;b&gt;Notification: GUID&lt;/b&gt;" style="text;strokeColor=none;fillColor=none;align=left;verticalAlign=middle;spacingLeft=4;spacingRight=4;overflow=hidden;points=[[0,0.5],[1,0.5]];portConstraint=eastwest;rotatable=0;whiteSpace=wrap;html=1;" parent="t6kavxzw9Mqx2PXKAYc6-24" vertex="1">
          <mxGeometry y="30" width="160" height="30" as="geometry" />
        </mxCell>
        <mxCell id="t6kavxzw9Mqx2PXKAYc6-26" value="&lt;b&gt;User: User&lt;/b&gt;" style="text;strokeColor=none;fillColor=none;align=left;verticalAlign=middle;spacingLeft=4;spacingRight=4;overflow=hidden;points=[[0,0.5],[1,0.5]];portConstraint=eastwest;rotatable=0;whiteSpace=wrap;html=1;" parent="t6kavxzw9Mqx2PXKAYc6-24" vertex="1">
          <mxGeometry y="60" width="160" height="30" as="geometry" />
        </mxCell>
        <mxCell id="t6kavxzw9Mqx2PXKAYc6-27" value="Type: Enum" style="text;strokeColor=none;fillColor=none;align=left;verticalAlign=middle;spacingLeft=4;spacingRight=4;overflow=hidden;points=[[0,0.5],[1,0.5]];portConstraint=eastwest;rotatable=0;whiteSpace=wrap;html=1;" parent="t6kavxzw9Mqx2PXKAYc6-24" vertex="1">
          <mxGeometry y="90" width="160" height="30" as="geometry" />
        </mxCell>
        <mxCell id="t6kavxzw9Mqx2PXKAYc6-28" value="Message: String" style="text;strokeColor=none;fillColor=none;align=left;verticalAlign=middle;spacingLeft=4;spacingRight=4;overflow=hidden;points=[[0,0.5],[1,0.5]];portConstraint=eastwest;rotatable=0;whiteSpace=wrap;html=1;" parent="t6kavxzw9Mqx2PXKAYc6-24" vertex="1">
          <mxGeometry y="120" width="160" height="30" as="geometry" />
        </mxCell>
        <mxCell id="t6kavxzw9Mqx2PXKAYc6-29" value="isRead: Boolean" style="text;strokeColor=none;fillColor=none;align=left;verticalAlign=middle;spacingLeft=4;spacingRight=4;overflow=hidden;points=[[0,0.5],[1,0.5]];portConstraint=eastwest;rotatable=0;whiteSpace=wrap;html=1;" parent="t6kavxzw9Mqx2PXKAYc6-24" vertex="1">
          <mxGeometry y="150" width="160" height="30" as="geometry" />
        </mxCell>
        <mxCell id="t6kavxzw9Mqx2PXKAYc6-30" value="TimeStamp: DateTime" style="text;strokeColor=none;fillColor=none;align=left;verticalAlign=middle;spacingLeft=4;spacingRight=4;overflow=hidden;points=[[0,0.5],[1,0.5]];portConstraint=eastwest;rotatable=0;whiteSpace=wrap;html=1;" parent="t6kavxzw9Mqx2PXKAYc6-24" vertex="1">
          <mxGeometry y="180" width="160" height="30" as="geometry" />
        </mxCell>
        <mxCell id="t6kavxzw9Mqx2PXKAYc6-31" value="User" style="swimlane;fontStyle=0;childLayout=stackLayout;horizontal=1;startSize=30;horizontalStack=0;resizeParent=1;resizeParentMax=0;resizeLast=0;collapsible=1;marginBottom=0;whiteSpace=wrap;html=1;" parent="1" vertex="1">
          <mxGeometry x="1020" y="320" width="220" height="240" as="geometry" />
        </mxCell>
        <mxCell id="t6kavxzw9Mqx2PXKAYc6-32" value="&lt;b&gt;UserId: GUID&lt;/b&gt;" style="text;strokeColor=none;fillColor=none;align=left;verticalAlign=middle;spacingLeft=4;spacingRight=4;overflow=hidden;points=[[0,0.5],[1,0.5]];portConstraint=eastwest;rotatable=0;whiteSpace=wrap;html=1;" parent="t6kavxzw9Mqx2PXKAYc6-31" vertex="1">
          <mxGeometry y="30" width="220" height="30" as="geometry" />
        </mxCell>
        <mxCell id="t6kavxzw9Mqx2PXKAYc6-33" value="Name: String" style="text;strokeColor=none;fillColor=none;align=left;verticalAlign=middle;spacingLeft=4;spacingRight=4;overflow=hidden;points=[[0,0.5],[1,0.5]];portConstraint=eastwest;rotatable=0;whiteSpace=wrap;html=1;" parent="t6kavxzw9Mqx2PXKAYc6-31" vertex="1">
          <mxGeometry y="60" width="220" height="30" as="geometry" />
        </mxCell>
        <mxCell id="t6kavxzw9Mqx2PXKAYc6-34" value="Email: String" style="text;strokeColor=none;fillColor=none;align=left;verticalAlign=middle;spacingLeft=4;spacingRight=4;overflow=hidden;points=[[0,0.5],[1,0.5]];portConstraint=eastwest;rotatable=0;whiteSpace=wrap;html=1;" parent="t6kavxzw9Mqx2PXKAYc6-31" vertex="1">
          <mxGeometry y="90" width="220" height="30" as="geometry" />
        </mxCell>
        <mxCell id="t6kavxzw9Mqx2PXKAYc6-35" value="PasswordHash: String" style="text;strokeColor=none;fillColor=none;align=left;verticalAlign=middle;spacingLeft=4;spacingRight=4;overflow=hidden;points=[[0,0.5],[1,0.5]];portConstraint=eastwest;rotatable=0;whiteSpace=wrap;html=1;" parent="t6kavxzw9Mqx2PXKAYc6-31" vertex="1">
          <mxGeometry y="120" width="220" height="30" as="geometry" />
        </mxCell>
        <mxCell id="t6kavxzw9Mqx2PXKAYc6-36" value="ProfilePicture: String" style="text;strokeColor=none;fillColor=none;align=left;verticalAlign=middle;spacingLeft=4;spacingRight=4;overflow=hidden;points=[[0,0.5],[1,0.5]];portConstraint=eastwest;rotatable=0;whiteSpace=wrap;html=1;" parent="t6kavxzw9Mqx2PXKAYc6-31" vertex="1">
          <mxGeometry y="150" width="220" height="30" as="geometry" />
        </mxCell>
        <mxCell id="t6kavxzw9Mqx2PXKAYc6-37" value="JoinDate: DateTime" style="text;strokeColor=none;fillColor=none;align=left;verticalAlign=middle;spacingLeft=4;spacingRight=4;overflow=hidden;points=[[0,0.5],[1,0.5]];portConstraint=eastwest;rotatable=0;whiteSpace=wrap;html=1;" parent="t6kavxzw9Mqx2PXKAYc6-31" vertex="1">
          <mxGeometry y="180" width="220" height="30" as="geometry" />
        </mxCell>
        <mxCell id="t6kavxzw9Mqx2PXKAYc6-38" value="&lt;b&gt;ChallengesJoined: List&amp;lt;Challenge&amp;gt;&lt;/b&gt;" style="text;strokeColor=none;fillColor=none;align=left;verticalAlign=middle;spacingLeft=4;spacingRight=4;overflow=hidden;points=[[0,0.5],[1,0.5]];portConstraint=eastwest;rotatable=0;whiteSpace=wrap;html=1;" parent="t6kavxzw9Mqx2PXKAYc6-31" vertex="1">
          <mxGeometry y="210" width="220" height="30" as="geometry" />
        </mxCell>
        <mxCell id="t6kavxzw9Mqx2PXKAYc6-39" value="Comment" style="swimlane;fontStyle=0;childLayout=stackLayout;horizontal=1;startSize=30;horizontalStack=0;resizeParent=1;resizeParentMax=0;resizeLast=0;collapsible=1;marginBottom=0;whiteSpace=wrap;html=1;" parent="1" vertex="1">
          <mxGeometry x="1280" y="650" width="160" height="180" as="geometry" />
        </mxCell>
        <mxCell id="t6kavxzw9Mqx2PXKAYc6-40" value="&lt;b&gt;CommentId: GUID&lt;/b&gt;" style="text;strokeColor=none;fillColor=none;align=left;verticalAlign=middle;spacingLeft=4;spacingRight=4;overflow=hidden;points=[[0,0.5],[1,0.5]];portConstraint=eastwest;rotatable=0;whiteSpace=wrap;html=1;" parent="t6kavxzw9Mqx2PXKAYc6-39" vertex="1">
          <mxGeometry y="30" width="160" height="30" as="geometry" />
        </mxCell>
        <mxCell id="t6kavxzw9Mqx2PXKAYc6-41" value="&lt;b&gt;Author: User&lt;/b&gt;" style="text;strokeColor=none;fillColor=none;align=left;verticalAlign=middle;spacingLeft=4;spacingRight=4;overflow=hidden;points=[[0,0.5],[1,0.5]];portConstraint=eastwest;rotatable=0;whiteSpace=wrap;html=1;" parent="t6kavxzw9Mqx2PXKAYc6-39" vertex="1">
          <mxGeometry y="60" width="160" height="30" as="geometry" />
        </mxCell>
        <mxCell id="t6kavxzw9Mqx2PXKAYc6-42" value="&lt;b&gt;CheckIn: CheckIn&lt;/b&gt;" style="text;strokeColor=none;fillColor=none;align=left;verticalAlign=middle;spacingLeft=4;spacingRight=4;overflow=hidden;points=[[0,0.5],[1,0.5]];portConstraint=eastwest;rotatable=0;whiteSpace=wrap;html=1;" parent="t6kavxzw9Mqx2PXKAYc6-39" vertex="1">
          <mxGeometry y="90" width="160" height="30" as="geometry" />
        </mxCell>
        <mxCell id="t6kavxzw9Mqx2PXKAYc6-43" value="Text: String" style="text;strokeColor=none;fillColor=none;align=left;verticalAlign=middle;spacingLeft=4;spacingRight=4;overflow=hidden;points=[[0,0.5],[1,0.5]];portConstraint=eastwest;rotatable=0;whiteSpace=wrap;html=1;" parent="t6kavxzw9Mqx2PXKAYc6-39" vertex="1">
          <mxGeometry y="120" width="160" height="30" as="geometry" />
        </mxCell>
        <mxCell id="t6kavxzw9Mqx2PXKAYc6-44" value="TimeStamp: DateTime" style="text;strokeColor=none;fillColor=none;align=left;verticalAlign=middle;spacingLeft=4;spacingRight=4;overflow=hidden;points=[[0,0.5],[1,0.5]];portConstraint=eastwest;rotatable=0;whiteSpace=wrap;html=1;" parent="t6kavxzw9Mqx2PXKAYc6-39" vertex="1">
          <mxGeometry y="150" width="160" height="30" as="geometry" />
        </mxCell>
        <mxCell id="t6kavxzw9Mqx2PXKAYc6-46" value="CheckIn" style="swimlane;fontStyle=0;childLayout=stackLayout;horizontal=1;startSize=30;horizontalStack=0;resizeParent=1;resizeParentMax=0;resizeLast=0;collapsible=1;marginBottom=0;whiteSpace=wrap;html=1;" parent="1" vertex="1">
          <mxGeometry x="810" y="650" width="170" height="270" as="geometry" />
        </mxCell>
        <mxCell id="t6kavxzw9Mqx2PXKAYc6-47" value="&lt;b&gt;CheckIn: GUID&lt;/b&gt;" style="text;strokeColor=none;fillColor=none;align=left;verticalAlign=middle;spacingLeft=4;spacingRight=4;overflow=hidden;points=[[0,0.5],[1,0.5]];portConstraint=eastwest;rotatable=0;whiteSpace=wrap;html=1;" parent="t6kavxzw9Mqx2PXKAYc6-46" vertex="1">
          <mxGeometry y="30" width="170" height="30" as="geometry" />
        </mxCell>
        <mxCell id="t6kavxzw9Mqx2PXKAYc6-48" value="&lt;b&gt;User: User&lt;/b&gt;" style="text;strokeColor=none;fillColor=none;align=left;verticalAlign=middle;spacingLeft=4;spacingRight=4;overflow=hidden;points=[[0,0.5],[1,0.5]];portConstraint=eastwest;rotatable=0;whiteSpace=wrap;html=1;" parent="t6kavxzw9Mqx2PXKAYc6-46" vertex="1">
          <mxGeometry y="60" width="170" height="30" as="geometry" />
        </mxCell>
        <mxCell id="t6kavxzw9Mqx2PXKAYc6-49" value="&lt;b&gt;Challenge: Challenge&lt;/b&gt;" style="text;strokeColor=none;fillColor=none;align=left;verticalAlign=middle;spacingLeft=4;spacingRight=4;overflow=hidden;points=[[0,0.5],[1,0.5]];portConstraint=eastwest;rotatable=0;whiteSpace=wrap;html=1;" parent="t6kavxzw9Mqx2PXKAYc6-46" vertex="1">
          <mxGeometry y="90" width="170" height="30" as="geometry" />
        </mxCell>
        <mxCell id="t6kavxzw9Mqx2PXKAYc6-50" value="TimeStamp: DateTime" style="text;strokeColor=none;fillColor=none;align=left;verticalAlign=middle;spacingLeft=4;spacingRight=4;overflow=hidden;points=[[0,0.5],[1,0.5]];portConstraint=eastwest;rotatable=0;whiteSpace=wrap;html=1;" parent="t6kavxzw9Mqx2PXKAYc6-46" vertex="1">
          <mxGeometry y="120" width="170" height="30" as="geometry" />
        </mxCell>
        <mxCell id="t6kavxzw9Mqx2PXKAYc6-51" value="&lt;b&gt;Comment: List&amp;lt;Comment&amp;gt;&lt;/b&gt;" style="text;strokeColor=none;fillColor=none;align=left;verticalAlign=middle;spacingLeft=4;spacingRight=4;overflow=hidden;points=[[0,0.5],[1,0.5]];portConstraint=eastwest;rotatable=0;whiteSpace=wrap;html=1;" parent="t6kavxzw9Mqx2PXKAYc6-46" vertex="1">
          <mxGeometry y="150" width="170" height="30" as="geometry" />
        </mxCell>
        <mxCell id="t6kavxzw9Mqx2PXKAYc6-52" value="PhotoUrl: String" style="text;strokeColor=none;fillColor=none;align=left;verticalAlign=middle;spacingLeft=4;spacingRight=4;overflow=hidden;points=[[0,0.5],[1,0.5]];portConstraint=eastwest;rotatable=0;whiteSpace=wrap;html=1;" parent="t6kavxzw9Mqx2PXKAYc6-46" vertex="1">
          <mxGeometry y="180" width="170" height="30" as="geometry" />
        </mxCell>
        <mxCell id="t6kavxzw9Mqx2PXKAYc6-53" value="Description: String" style="text;strokeColor=none;fillColor=none;align=left;verticalAlign=middle;spacingLeft=4;spacingRight=4;overflow=hidden;points=[[0,0.5],[1,0.5]];portConstraint=eastwest;rotatable=0;whiteSpace=wrap;html=1;" parent="t6kavxzw9Mqx2PXKAYc6-46" vertex="1">
          <mxGeometry y="210" width="170" height="30" as="geometry" />
        </mxCell>
        <mxCell id="t6kavxzw9Mqx2PXKAYc6-54" value="PointsEarned: Int" style="text;strokeColor=none;fillColor=none;align=left;verticalAlign=middle;spacingLeft=4;spacingRight=4;overflow=hidden;points=[[0,0.5],[1,0.5]];portConstraint=eastwest;rotatable=0;whiteSpace=wrap;html=1;" parent="t6kavxzw9Mqx2PXKAYc6-46" vertex="1">
          <mxGeometry y="240" width="170" height="30" as="geometry" />
        </mxCell>
        <mxCell id="t6kavxzw9Mqx2PXKAYc6-55" value="Score" style="swimlane;fontStyle=0;childLayout=stackLayout;horizontal=1;startSize=30;horizontalStack=0;resizeParent=1;resizeParentMax=0;resizeLast=0;collapsible=1;marginBottom=0;whiteSpace=wrap;html=1;" parent="1" vertex="1">
          <mxGeometry x="570" y="170" width="160" height="150" as="geometry" />
        </mxCell>
        <mxCell id="t6kavxzw9Mqx2PXKAYc6-56" value="&lt;b&gt;ScoreId: GUID&lt;/b&gt;" style="text;strokeColor=none;fillColor=none;align=left;verticalAlign=middle;spacingLeft=4;spacingRight=4;overflow=hidden;points=[[0,0.5],[1,0.5]];portConstraint=eastwest;rotatable=0;whiteSpace=wrap;html=1;" parent="t6kavxzw9Mqx2PXKAYc6-55" vertex="1">
          <mxGeometry y="30" width="160" height="30" as="geometry" />
        </mxCell>
        <mxCell id="t6kavxzw9Mqx2PXKAYc6-57" value="&lt;b&gt;User: User&lt;/b&gt;" style="text;strokeColor=none;fillColor=none;align=left;verticalAlign=middle;spacingLeft=4;spacingRight=4;overflow=hidden;points=[[0,0.5],[1,0.5]];portConstraint=eastwest;rotatable=0;whiteSpace=wrap;html=1;" parent="t6kavxzw9Mqx2PXKAYc6-55" vertex="1">
          <mxGeometry y="60" width="160" height="30" as="geometry" />
        </mxCell>
        <mxCell id="t6kavxzw9Mqx2PXKAYc6-58" value="&lt;b&gt;Challenge: Challenge&lt;/b&gt;" style="text;strokeColor=none;fillColor=none;align=left;verticalAlign=middle;spacingLeft=4;spacingRight=4;overflow=hidden;points=[[0,0.5],[1,0.5]];portConstraint=eastwest;rotatable=0;whiteSpace=wrap;html=1;" parent="t6kavxzw9Mqx2PXKAYc6-55" vertex="1">
          <mxGeometry y="90" width="160" height="30" as="geometry" />
        </mxCell>
        <mxCell id="t6kavxzw9Mqx2PXKAYc6-59" value="TotalPoints: Int" style="text;strokeColor=none;fillColor=none;align=left;verticalAlign=middle;spacingLeft=4;spacingRight=4;overflow=hidden;points=[[0,0.5],[1,0.5]];portConstraint=eastwest;rotatable=0;whiteSpace=wrap;html=1;" parent="t6kavxzw9Mqx2PXKAYc6-55" vertex="1">
          <mxGeometry y="120" width="160" height="30" as="geometry" />
        </mxCell>
        <mxCell id="t6kavxzw9Mqx2PXKAYc6-61" value="Challenge" style="swimlane;fontStyle=0;childLayout=stackLayout;horizontal=1;startSize=30;horizontalStack=0;resizeParent=1;resizeParentMax=0;resizeLast=0;collapsible=1;marginBottom=0;whiteSpace=wrap;html=1;" parent="1" vertex="1">
          <mxGeometry x="570" y="400" width="160" height="390" as="geometry" />
        </mxCell>
        <mxCell id="t6kavxzw9Mqx2PXKAYc6-62" value="&lt;b&gt;ChallengeId: UUID&lt;/b&gt;" style="text;strokeColor=none;fillColor=none;align=left;verticalAlign=middle;spacingLeft=4;spacingRight=4;overflow=hidden;points=[[0,0.5],[1,0.5]];portConstraint=eastwest;rotatable=0;whiteSpace=wrap;html=1;" parent="t6kavxzw9Mqx2PXKAYc6-61" vertex="1">
          <mxGeometry y="30" width="160" height="30" as="geometry" />
        </mxCell>
        <mxCell id="t6kavxzw9Mqx2PXKAYc6-63" value="Title: String" style="text;strokeColor=none;fillColor=none;align=left;verticalAlign=middle;spacingLeft=4;spacingRight=4;overflow=hidden;points=[[0,0.5],[1,0.5]];portConstraint=eastwest;rotatable=0;whiteSpace=wrap;html=1;" parent="t6kavxzw9Mqx2PXKAYc6-61" vertex="1">
          <mxGeometry y="60" width="160" height="30" as="geometry" />
        </mxCell>
        <mxCell id="t6kavxzw9Mqx2PXKAYc6-64" value="&lt;b&gt;Participants: List&amp;lt;User&amp;gt;&lt;/b&gt;" style="text;strokeColor=none;fillColor=none;align=left;verticalAlign=middle;spacingLeft=4;spacingRight=4;overflow=hidden;points=[[0,0.5],[1,0.5]];portConstraint=eastwest;rotatable=0;whiteSpace=wrap;html=1;" parent="t6kavxzw9Mqx2PXKAYc6-61" vertex="1">
          <mxGeometry y="90" width="160" height="30" as="geometry" />
        </mxCell>
        <mxCell id="t6kavxzw9Mqx2PXKAYc6-66" value="Description: String" style="text;strokeColor=none;fillColor=none;align=left;verticalAlign=middle;spacingLeft=4;spacingRight=4;overflow=hidden;points=[[0,0.5],[1,0.5]];portConstraint=eastwest;rotatable=0;whiteSpace=wrap;html=1;" parent="t6kavxzw9Mqx2PXKAYc6-61" vertex="1">
          <mxGeometry y="120" width="160" height="30" as="geometry" />
        </mxCell>
        <mxCell id="t6kavxzw9Mqx2PXKAYc6-65" value="&lt;b&gt;CreatedBy: User&lt;/b&gt;" style="text;strokeColor=none;fillColor=none;align=left;verticalAlign=middle;spacingLeft=4;spacingRight=4;overflow=hidden;points=[[0,0.5],[1,0.5]];portConstraint=eastwest;rotatable=0;whiteSpace=wrap;html=1;" parent="t6kavxzw9Mqx2PXKAYc6-61" vertex="1">
          <mxGeometry y="150" width="160" height="30" as="geometry" />
        </mxCell>
        <mxCell id="t6kavxzw9Mqx2PXKAYc6-67" value="StartDate: DateTime" style="text;strokeColor=none;fillColor=none;align=left;verticalAlign=middle;spacingLeft=4;spacingRight=4;overflow=hidden;points=[[0,0.5],[1,0.5]];portConstraint=eastwest;rotatable=0;whiteSpace=wrap;html=1;" parent="t6kavxzw9Mqx2PXKAYc6-61" vertex="1">
          <mxGeometry y="180" width="160" height="30" as="geometry" />
        </mxCell>
        <mxCell id="t6kavxzw9Mqx2PXKAYc6-68" value="EndDate: DateTime" style="text;strokeColor=none;fillColor=none;align=left;verticalAlign=middle;spacingLeft=4;spacingRight=4;overflow=hidden;points=[[0,0.5],[1,0.5]];portConstraint=eastwest;rotatable=0;whiteSpace=wrap;html=1;" parent="t6kavxzw9Mqx2PXKAYc6-61" vertex="1">
          <mxGeometry y="210" width="160" height="30" as="geometry" />
        </mxCell>
        <mxCell id="t6kavxzw9Mqx2PXKAYc6-69" value="GoalType: Enum" style="text;strokeColor=none;fillColor=none;align=left;verticalAlign=middle;spacingLeft=4;spacingRight=4;overflow=hidden;points=[[0,0.5],[1,0.5]];portConstraint=eastwest;rotatable=0;whiteSpace=wrap;html=1;" parent="t6kavxzw9Mqx2PXKAYc6-61" vertex="1">
          <mxGeometry y="240" width="160" height="30" as="geometry" />
        </mxCell>
        <mxCell id="t6kavxzw9Mqx2PXKAYc6-70" value="GoalValue: Int" style="text;strokeColor=none;fillColor=none;align=left;verticalAlign=middle;spacingLeft=4;spacingRight=4;overflow=hidden;points=[[0,0.5],[1,0.5]];portConstraint=eastwest;rotatable=0;whiteSpace=wrap;html=1;" parent="t6kavxzw9Mqx2PXKAYc6-61" vertex="1">
          <mxGeometry y="270" width="160" height="30" as="geometry" />
        </mxCell>
        <mxCell id="t6kavxzw9Mqx2PXKAYc6-71" value="ScoringSystem: String" style="text;strokeColor=none;fillColor=none;align=left;verticalAlign=middle;spacingLeft=4;spacingRight=4;overflow=hidden;points=[[0,0.5],[1,0.5]];portConstraint=eastwest;rotatable=0;whiteSpace=wrap;html=1;" parent="t6kavxzw9Mqx2PXKAYc6-61" vertex="1">
          <mxGeometry y="300" width="160" height="30" as="geometry" />
        </mxCell>
        <mxCell id="t6kavxzw9Mqx2PXKAYc6-72" value="&lt;b&gt;Leaderboard: List&amp;lt;Score&amp;gt;&lt;/b&gt;" style="text;strokeColor=none;fillColor=none;align=left;verticalAlign=middle;spacingLeft=4;spacingRight=4;overflow=hidden;points=[[0,0.5],[1,0.5]];portConstraint=eastwest;rotatable=0;whiteSpace=wrap;html=1;" parent="t6kavxzw9Mqx2PXKAYc6-61" vertex="1">
          <mxGeometry y="330" width="160" height="30" as="geometry" />
        </mxCell>
        <mxCell id="t6kavxzw9Mqx2PXKAYc6-73" value="IsPrivate: Boolean" style="text;strokeColor=none;fillColor=none;align=left;verticalAlign=middle;spacingLeft=4;spacingRight=4;overflow=hidden;points=[[0,0.5],[1,0.5]];portConstraint=eastwest;rotatable=0;whiteSpace=wrap;html=1;" parent="t6kavxzw9Mqx2PXKAYc6-61" vertex="1">
          <mxGeometry y="360" width="160" height="30" as="geometry" />
        </mxCell>
        <mxCell id="t6kavxzw9Mqx2PXKAYc6-74" style="edgeStyle=orthogonalEdgeStyle;rounded=0;orthogonalLoop=1;jettySize=auto;html=1;exitX=1;exitY=0.5;exitDx=0;exitDy=0;entryX=0;entryY=0.5;entryDx=0;entryDy=0;" parent="1" source="t6kavxzw9Mqx2PXKAYc6-32" target="t6kavxzw9Mqx2PXKAYc6-26" edge="1">
          <mxGeometry relative="1" as="geometry" />
        </mxCell>
        <mxCell id="t6kavxzw9Mqx2PXKAYc6-75" style="edgeStyle=orthogonalEdgeStyle;rounded=0;orthogonalLoop=1;jettySize=auto;html=1;exitX=1;exitY=0.5;exitDx=0;exitDy=0;entryX=0;entryY=0.5;entryDx=0;entryDy=0;" parent="1" source="t6kavxzw9Mqx2PXKAYc6-32" target="t6kavxzw9Mqx2PXKAYc6-41" edge="1">
          <mxGeometry relative="1" as="geometry" />
        </mxCell>
        <mxCell id="t6kavxzw9Mqx2PXKAYc6-76" style="edgeStyle=orthogonalEdgeStyle;rounded=0;orthogonalLoop=1;jettySize=auto;html=1;exitX=0;exitY=0.5;exitDx=0;exitDy=0;entryX=1;entryY=0.5;entryDx=0;entryDy=0;" parent="1" source="t6kavxzw9Mqx2PXKAYc6-32" target="t6kavxzw9Mqx2PXKAYc6-48" edge="1">
          <mxGeometry relative="1" as="geometry" />
        </mxCell>
        <mxCell id="t6kavxzw9Mqx2PXKAYc6-77" style="edgeStyle=orthogonalEdgeStyle;rounded=0;orthogonalLoop=1;jettySize=auto;html=1;exitX=0;exitY=0.5;exitDx=0;exitDy=0;entryX=1;entryY=0.5;entryDx=0;entryDy=0;" parent="1" source="t6kavxzw9Mqx2PXKAYc6-32" target="t6kavxzw9Mqx2PXKAYc6-57" edge="1">
          <mxGeometry relative="1" as="geometry">
            <Array as="points">
              <mxPoint x="1000" y="365" />
              <mxPoint x="1000" y="245" />
            </Array>
          </mxGeometry>
        </mxCell>
        <mxCell id="t6kavxzw9Mqx2PXKAYc6-78" style="edgeStyle=orthogonalEdgeStyle;rounded=0;orthogonalLoop=1;jettySize=auto;html=1;exitX=0;exitY=0.5;exitDx=0;exitDy=0;entryX=1;entryY=0.5;entryDx=0;entryDy=0;" parent="1" source="t6kavxzw9Mqx2PXKAYc6-32" target="t6kavxzw9Mqx2PXKAYc6-64" edge="1">
          <mxGeometry relative="1" as="geometry">
            <Array as="points">
              <mxPoint x="1000" y="365" />
              <mxPoint x="1000" y="505" />
            </Array>
          </mxGeometry>
        </mxCell>
        <mxCell id="t6kavxzw9Mqx2PXKAYc6-79" style="edgeStyle=orthogonalEdgeStyle;rounded=0;orthogonalLoop=1;jettySize=auto;html=1;exitX=1;exitY=0.5;exitDx=0;exitDy=0;entryX=0;entryY=0.5;entryDx=0;entryDy=0;" parent="1" source="t6kavxzw9Mqx2PXKAYc6-62" target="t6kavxzw9Mqx2PXKAYc6-38" edge="1">
          <mxGeometry relative="1" as="geometry" />
        </mxCell>
        <mxCell id="t6kavxzw9Mqx2PXKAYc6-80" style="edgeStyle=orthogonalEdgeStyle;rounded=0;orthogonalLoop=1;jettySize=auto;html=1;exitX=1;exitY=0.5;exitDx=0;exitDy=0;entryX=0;entryY=0.5;entryDx=0;entryDy=0;" parent="1" source="t6kavxzw9Mqx2PXKAYc6-62" target="t6kavxzw9Mqx2PXKAYc6-49" edge="1">
          <mxGeometry relative="1" as="geometry" />
        </mxCell>
        <mxCell id="t6kavxzw9Mqx2PXKAYc6-81" style="edgeStyle=orthogonalEdgeStyle;rounded=0;orthogonalLoop=1;jettySize=auto;html=1;exitX=0;exitY=0.5;exitDx=0;exitDy=0;entryX=1;entryY=0.5;entryDx=0;entryDy=0;fontStyle=1" parent="1" source="t6kavxzw9Mqx2PXKAYc6-62" target="t6kavxzw9Mqx2PXKAYc6-3" edge="1">
          <mxGeometry relative="1" as="geometry" />
        </mxCell>
        <mxCell id="t6kavxzw9Mqx2PXKAYc6-82" style="edgeStyle=orthogonalEdgeStyle;rounded=0;orthogonalLoop=1;jettySize=auto;html=1;exitX=0;exitY=0.5;exitDx=0;exitDy=0;entryX=1;entryY=0.5;entryDx=0;entryDy=0;" parent="1" source="t6kavxzw9Mqx2PXKAYc6-62" target="t6kavxzw9Mqx2PXKAYc6-18" edge="1">
          <mxGeometry relative="1" as="geometry">
            <Array as="points">
              <mxPoint x="490" y="445" />
              <mxPoint x="490" y="695" />
            </Array>
          </mxGeometry>
        </mxCell>
        <mxCell id="t6kavxzw9Mqx2PXKAYc6-83" style="edgeStyle=orthogonalEdgeStyle;rounded=0;orthogonalLoop=1;jettySize=auto;html=1;exitX=0;exitY=0.5;exitDx=0;exitDy=0;entryX=0;entryY=0.5;entryDx=0;entryDy=0;" parent="1" source="t6kavxzw9Mqx2PXKAYc6-62" target="t6kavxzw9Mqx2PXKAYc6-58" edge="1">
          <mxGeometry relative="1" as="geometry" />
        </mxCell>
        <mxCell id="t6kavxzw9Mqx2PXKAYc6-84" style="edgeStyle=orthogonalEdgeStyle;rounded=0;orthogonalLoop=1;jettySize=auto;html=1;exitX=1;exitY=0.5;exitDx=0;exitDy=0;entryX=0;entryY=0.5;entryDx=0;entryDy=0;" parent="1" source="t6kavxzw9Mqx2PXKAYc6-47" target="t6kavxzw9Mqx2PXKAYc6-42" edge="1">
          <mxGeometry relative="1" as="geometry">
            <Array as="points">
              <mxPoint x="1030" y="695" />
              <mxPoint x="1030" y="755" />
            </Array>
          </mxGeometry>
        </mxCell>
        <mxCell id="t6kavxzw9Mqx2PXKAYc6-85" style="edgeStyle=orthogonalEdgeStyle;rounded=0;orthogonalLoop=1;jettySize=auto;html=1;exitX=0;exitY=0.5;exitDx=0;exitDy=0;entryX=1;entryY=0.5;entryDx=0;entryDy=0;" parent="1" source="t6kavxzw9Mqx2PXKAYc6-40" target="t6kavxzw9Mqx2PXKAYc6-51" edge="1">
          <mxGeometry relative="1" as="geometry">
            <Array as="points">
              <mxPoint x="1070" y="695" />
              <mxPoint x="1070" y="815" />
            </Array>
          </mxGeometry>
        </mxCell>
        <mxCell id="t6kavxzw9Mqx2PXKAYc6-86" style="edgeStyle=orthogonalEdgeStyle;rounded=0;orthogonalLoop=1;jettySize=auto;html=1;exitX=0;exitY=0.5;exitDx=0;exitDy=0;entryX=0;entryY=0.5;entryDx=0;entryDy=0;" parent="1" source="t6kavxzw9Mqx2PXKAYc6-56" target="t6kavxzw9Mqx2PXKAYc6-72" edge="1">
          <mxGeometry relative="1" as="geometry">
            <Array as="points">
              <mxPoint x="520" y="215" />
              <mxPoint x="520" y="745" />
            </Array>
          </mxGeometry>
        </mxCell>
        <mxCell id="t6kavxzw9Mqx2PXKAYc6-87" style="edgeStyle=orthogonalEdgeStyle;rounded=0;orthogonalLoop=1;jettySize=auto;html=1;exitX=0;exitY=0.5;exitDx=0;exitDy=0;entryX=1;entryY=0.5;entryDx=0;entryDy=0;" parent="1" source="t6kavxzw9Mqx2PXKAYc6-32" target="t6kavxzw9Mqx2PXKAYc6-4" edge="1">
          <mxGeometry relative="1" as="geometry" />
        </mxCell>
      </root>
    </mxGraphModel>
  </diagram>
  <diagram id="eHJbGNSygsr1BzchezBi" name="Casos de Uso">
    <mxGraphModel dx="1678" dy="919" grid="1" gridSize="10" guides="1" tooltips="1" connect="1" arrows="1" fold="1" page="1" pageScale="1" pageWidth="2000" pageHeight="2000" math="0" shadow="0">
      <root>
        <mxCell id="0" />
        <mxCell id="1" parent="0" />
        <mxCell id="EfYHugl5u7Ia528sMhur-1" value="" style="rounded=0;whiteSpace=wrap;html=1;fillColor=none;" vertex="1" parent="1">
          <mxGeometry x="730" y="460" width="630" height="890" as="geometry" />
        </mxCell>
        <mxCell id="EfYHugl5u7Ia528sMhur-15" style="rounded=0;orthogonalLoop=1;jettySize=auto;html=1;entryX=0;entryY=0.5;entryDx=0;entryDy=0;endArrow=open;startFill=0;endFill=0;" edge="1" parent="1" source="EfYHugl5u7Ia528sMhur-3" target="EfYHugl5u7Ia528sMhur-4">
          <mxGeometry relative="1" as="geometry" />
        </mxCell>
        <mxCell id="EfYHugl5u7Ia528sMhur-16" style="rounded=0;orthogonalLoop=1;jettySize=auto;html=1;entryX=0;entryY=0.5;entryDx=0;entryDy=0;endArrow=open;startFill=0;endFill=0;" edge="1" parent="1" source="EfYHugl5u7Ia528sMhur-3" target="EfYHugl5u7Ia528sMhur-5">
          <mxGeometry relative="1" as="geometry" />
        </mxCell>
        <mxCell id="EfYHugl5u7Ia528sMhur-17" style="rounded=0;orthogonalLoop=1;jettySize=auto;html=1;entryX=0;entryY=0.5;entryDx=0;entryDy=0;endArrow=open;startFill=0;endFill=0;" edge="1" parent="1" source="EfYHugl5u7Ia528sMhur-3" target="EfYHugl5u7Ia528sMhur-6">
          <mxGeometry relative="1" as="geometry" />
        </mxCell>
        <mxCell id="EfYHugl5u7Ia528sMhur-18" style="rounded=0;orthogonalLoop=1;jettySize=auto;html=1;entryX=0;entryY=0.5;entryDx=0;entryDy=0;endArrow=open;startFill=0;endFill=0;" edge="1" parent="1" source="EfYHugl5u7Ia528sMhur-3" target="EfYHugl5u7Ia528sMhur-8">
          <mxGeometry relative="1" as="geometry" />
        </mxCell>
        <mxCell id="EfYHugl5u7Ia528sMhur-19" style="rounded=0;orthogonalLoop=1;jettySize=auto;html=1;entryX=0;entryY=0.5;entryDx=0;entryDy=0;endArrow=open;startFill=0;endFill=0;" edge="1" parent="1" source="EfYHugl5u7Ia528sMhur-3" target="EfYHugl5u7Ia528sMhur-11">
          <mxGeometry relative="1" as="geometry" />
        </mxCell>
        <mxCell id="EfYHugl5u7Ia528sMhur-20" style="rounded=0;orthogonalLoop=1;jettySize=auto;html=1;entryX=0;entryY=0.5;entryDx=0;entryDy=0;endArrow=open;startFill=0;endFill=0;" edge="1" parent="1" source="EfYHugl5u7Ia528sMhur-3" target="EfYHugl5u7Ia528sMhur-12">
          <mxGeometry relative="1" as="geometry" />
        </mxCell>
        <mxCell id="EfYHugl5u7Ia528sMhur-21" style="rounded=0;orthogonalLoop=1;jettySize=auto;html=1;entryX=0;entryY=0.5;entryDx=0;entryDy=0;endArrow=open;startFill=0;endFill=0;" edge="1" parent="1" source="EfYHugl5u7Ia528sMhur-3" target="EfYHugl5u7Ia528sMhur-13">
          <mxGeometry relative="1" as="geometry" />
        </mxCell>
        <mxCell id="EfYHugl5u7Ia528sMhur-22" style="rounded=0;orthogonalLoop=1;jettySize=auto;html=1;entryX=0;entryY=0.5;entryDx=0;entryDy=0;endArrow=open;startFill=0;endFill=0;" edge="1" parent="1" source="EfYHugl5u7Ia528sMhur-3" target="EfYHugl5u7Ia528sMhur-14">
          <mxGeometry relative="1" as="geometry" />
        </mxCell>
        <mxCell id="EfYHugl5u7Ia528sMhur-26" style="rounded=0;orthogonalLoop=1;jettySize=auto;html=1;entryX=0;entryY=0.5;entryDx=0;entryDy=0;endArrow=open;startFill=0;endFill=0;" edge="1" parent="1" source="EfYHugl5u7Ia528sMhur-3" target="EfYHugl5u7Ia528sMhur-7">
          <mxGeometry relative="1" as="geometry" />
        </mxCell>
        <mxCell id="EfYHugl5u7Ia528sMhur-27" style="rounded=0;orthogonalLoop=1;jettySize=auto;html=1;entryX=0;entryY=0.5;entryDx=0;entryDy=0;endArrow=open;startFill=0;endFill=0;" edge="1" parent="1" source="EfYHugl5u7Ia528sMhur-3" target="EfYHugl5u7Ia528sMhur-10">
          <mxGeometry relative="1" as="geometry" />
        </mxCell>
        <mxCell id="EfYHugl5u7Ia528sMhur-28" style="rounded=0;orthogonalLoop=1;jettySize=auto;html=1;entryX=0;entryY=0.5;entryDx=0;entryDy=0;endArrow=open;startFill=0;endFill=0;" edge="1" parent="1" source="EfYHugl5u7Ia528sMhur-3" target="EfYHugl5u7Ia528sMhur-9">
          <mxGeometry relative="1" as="geometry" />
        </mxCell>
        <mxCell id="EfYHugl5u7Ia528sMhur-30" style="rounded=0;orthogonalLoop=1;jettySize=auto;html=1;entryX=0;entryY=0.5;entryDx=0;entryDy=0;endArrow=open;endFill=0;" edge="1" parent="1" source="EfYHugl5u7Ia528sMhur-3" target="EfYHugl5u7Ia528sMhur-29">
          <mxGeometry relative="1" as="geometry" />
        </mxCell>
        <mxCell id="EfYHugl5u7Ia528sMhur-3" value="Usuário" style="shape=umlActor;verticalLabelPosition=bottom;verticalAlign=top;html=1;outlineConnect=0;" vertex="1" parent="1">
          <mxGeometry x="610" y="830" width="30" height="60" as="geometry" />
        </mxCell>
        <mxCell id="EfYHugl5u7Ia528sMhur-4" value="Criar Desafio" style="ellipse;whiteSpace=wrap;html=1;" vertex="1" parent="1">
          <mxGeometry x="1000" y="490" width="90" height="60" as="geometry" />
        </mxCell>
        <mxCell id="EfYHugl5u7Ia528sMhur-5" value="Registrar CheckIn" style="ellipse;whiteSpace=wrap;html=1;" vertex="1" parent="1">
          <mxGeometry x="1000" y="560" width="90" height="60" as="geometry" />
        </mxCell>
        <mxCell id="EfYHugl5u7Ia528sMhur-6" value="Convidar Usuário" style="ellipse;whiteSpace=wrap;html=1;" vertex="1" parent="1">
          <mxGeometry x="1000" y="630" width="90" height="60" as="geometry" />
        </mxCell>
        <mxCell id="EfYHugl5u7Ia528sMhur-7" value="Aceitar Usuário" style="ellipse;whiteSpace=wrap;html=1;" vertex="1" parent="1">
          <mxGeometry x="1000" y="1120" width="90" height="60" as="geometry" />
        </mxCell>
        <mxCell id="EfYHugl5u7Ia528sMhur-8" value="Solicitar Acesso" style="ellipse;whiteSpace=wrap;html=1;" vertex="1" parent="1">
          <mxGeometry x="1000" y="700" width="90" height="60" as="geometry" />
        </mxCell>
        <mxCell id="EfYHugl5u7Ia528sMhur-9" value="Avaliar CheckIn" style="ellipse;whiteSpace=wrap;html=1;" vertex="1" parent="1">
          <mxGeometry x="1000" y="1190" width="90" height="60" as="geometry" />
        </mxCell>
        <mxCell id="EfYHugl5u7Ia528sMhur-10" value="Comentar CheckIn" style="ellipse;whiteSpace=wrap;html=1;" vertex="1" parent="1">
          <mxGeometry x="1000" y="1050" width="90" height="60" as="geometry" />
        </mxCell>
        <mxCell id="EfYHugl5u7Ia528sMhur-11" value="Encerrar Desafio" style="ellipse;whiteSpace=wrap;html=1;" vertex="1" parent="1">
          <mxGeometry x="1130" y="770" width="90" height="60" as="geometry" />
        </mxCell>
        <mxCell id="EfYHugl5u7Ia528sMhur-12" value="Reportar Desafio" style="ellipse;whiteSpace=wrap;html=1;" vertex="1" parent="1">
          <mxGeometry x="1130" y="840" width="90" height="60" as="geometry" />
        </mxCell>
        <mxCell id="EfYHugl5u7Ia528sMhur-13" value="Denunciar Usuário" style="ellipse;whiteSpace=wrap;html=1;" vertex="1" parent="1">
          <mxGeometry x="1130" y="910" width="90" height="60" as="geometry" />
        </mxCell>
        <mxCell id="EfYHugl5u7Ia528sMhur-14" value="Criar Conta" style="ellipse;whiteSpace=wrap;html=1;" vertex="1" parent="1">
          <mxGeometry x="1000" y="980" width="90" height="60" as="geometry" />
        </mxCell>
        <mxCell id="EfYHugl5u7Ia528sMhur-29" value="Compartilhar CheckIn" style="ellipse;whiteSpace=wrap;html=1;" vertex="1" parent="1">
          <mxGeometry x="1000" y="1260" width="90" height="60" as="geometry" />
        </mxCell>
      </root>
    </mxGraphModel>
  </diagram>
</mxfile>
